<mxfile host="app.diagrams.net" modified="2021-01-27T08:04:43.077Z" agent="5.0 (Windows NT 6.3; Win64; x64) AppleWebKit/537.36 (KHTML, like Gecko) Chrome/87.0.4280.141 Safari/537.36" etag="Z5qEoMqMJ7cA6ON2Vs4w" version="14.2.7" type="github">
  <diagram id="aB4EEXJy258UfXPvWzpP" name="Page-1">
    <mxGraphModel dx="981" dy="548" grid="1" gridSize="10" guides="1" tooltips="1" connect="1" arrows="1" fold="1" page="1" pageScale="1" pageWidth="2000" pageHeight="1600" math="0" shadow="0">
      <root>
        <mxCell id="0" />
        <mxCell id="1" parent="0" />
        <mxCell id="I7u1v-EpFPIjkbzIhD2q-1" value="" style="verticalLabelPosition=bottom;verticalAlign=top;html=1;shadow=0;dashed=0;strokeWidth=1;shape=mxgraph.android.phone2;strokeColor=#c0c0c0;" vertex="1" parent="1">
          <mxGeometry x="620" y="200" width="210" height="400" as="geometry" />
        </mxCell>
        <mxCell id="I7u1v-EpFPIjkbzIhD2q-2" value="" style="strokeWidth=1;html=1;shadow=0;dashed=0;shape=mxgraph.android.rrect;rSize=0;strokeColor=#b46504;fillColor=#fad7ac;" vertex="1" parent="1">
          <mxGeometry x="630" y="240" width="190" height="320" as="geometry" />
        </mxCell>
        <mxCell id="I7u1v-EpFPIjkbzIhD2q-3" value="TORNEO CIVITAVECCHIA&lt;br&gt;&lt;br&gt;&lt;br&gt;&lt;br&gt;&lt;br&gt;17.00 - 19.00&lt;br&gt;" style="strokeColor=inherit;fillColor=inherit;gradientColor=inherit;strokeWidth=1;html=1;shadow=0;dashed=0;shape=mxgraph.android.rrect;rSize=0;align=left;spacingLeft=10;fontSize=8;fontColor=#333333;" vertex="1" parent="I7u1v-EpFPIjkbzIhD2q-2">
          <mxGeometry width="190" height="80" as="geometry" />
        </mxCell>
        <mxCell id="I7u1v-EpFPIjkbzIhD2q-4" value="Menu Item 2" style="strokeColor=inherit;fillColor=inherit;gradientColor=inherit;strokeWidth=1;html=1;shadow=0;dashed=0;shape=mxgraph.android.rrect;rSize=0;align=left;spacingLeft=10;fontSize=8;fontColor=#333333;" vertex="1" parent="I7u1v-EpFPIjkbzIhD2q-2">
          <mxGeometry y="80" width="190" height="80" as="geometry" />
        </mxCell>
        <mxCell id="I7u1v-EpFPIjkbzIhD2q-5" value="Menu Item 3" style="strokeColor=inherit;fillColor=inherit;gradientColor=inherit;strokeWidth=1;html=1;shadow=0;dashed=0;shape=mxgraph.android.rrect;rSize=0;align=left;spacingLeft=10;fontSize=8;fontColor=#333333;" vertex="1" parent="I7u1v-EpFPIjkbzIhD2q-2">
          <mxGeometry y="160" width="190" height="80" as="geometry" />
        </mxCell>
        <mxCell id="I7u1v-EpFPIjkbzIhD2q-6" value="Menu Item 4" style="strokeColor=inherit;fillColor=inherit;gradientColor=inherit;strokeWidth=1;html=1;shadow=0;dashed=0;shape=mxgraph.android.rrect;rSize=0;align=left;spacingLeft=10;fontSize=8;fontColor=#333333;" vertex="1" parent="I7u1v-EpFPIjkbzIhD2q-2">
          <mxGeometry y="240" width="190" height="80" as="geometry" />
        </mxCell>
        <mxCell id="I7u1v-EpFPIjkbzIhD2q-7" value="TORNEO VITERBO&lt;br&gt;&lt;br&gt;&lt;br&gt;&lt;br&gt;&lt;br&gt;12.00 - 14.00" style="strokeColor=inherit;fillColor=inherit;gradientColor=inherit;strokeWidth=1;html=1;shadow=0;dashed=0;shape=mxgraph.android.rrect;rSize=0;align=left;spacingLeft=10;fontSize=8;fontColor=#333333;" vertex="1" parent="I7u1v-EpFPIjkbzIhD2q-2">
          <mxGeometry y="80" width="190" height="80" as="geometry" />
        </mxCell>
        <mxCell id="I7u1v-EpFPIjkbzIhD2q-8" value="TORNEO LADISPOLI&lt;br&gt;&lt;br&gt;&lt;br&gt;&lt;br&gt;&lt;br&gt;17.00 - 19.00" style="strokeColor=inherit;fillColor=inherit;gradientColor=inherit;strokeWidth=1;html=1;shadow=0;dashed=0;shape=mxgraph.android.rrect;rSize=0;align=left;spacingLeft=10;fontSize=8;fontColor=#333333;" vertex="1" parent="I7u1v-EpFPIjkbzIhD2q-2">
          <mxGeometry y="160" width="190" height="80" as="geometry" />
        </mxCell>
        <mxCell id="I7u1v-EpFPIjkbzIhD2q-9" value="TORNEO VETRALLA&lt;br&gt;&lt;br&gt;&lt;br&gt;&lt;br&gt;&lt;br&gt;15.00 - 17.00" style="strokeColor=inherit;fillColor=inherit;gradientColor=inherit;strokeWidth=1;html=1;shadow=0;dashed=0;shape=mxgraph.android.rrect;rSize=0;align=left;spacingLeft=10;fontSize=8;fontColor=#333333;" vertex="1" parent="I7u1v-EpFPIjkbzIhD2q-2">
          <mxGeometry y="240" width="190" height="80" as="geometry" />
        </mxCell>
        <mxCell id="I7u1v-EpFPIjkbzIhD2q-10" value="" style="html=1;verticalLabelPosition=bottom;labelBackgroundColor=#ffffff;verticalAlign=top;shadow=0;dashed=0;strokeWidth=2;shape=mxgraph.ios7.misc.add;fillColor=#00dd00;strokeColor=#ffffff;" vertex="1" parent="I7u1v-EpFPIjkbzIhD2q-2">
          <mxGeometry x="160" y="50" width="20" height="20" as="geometry" />
        </mxCell>
        <mxCell id="I7u1v-EpFPIjkbzIhD2q-11" value="" style="html=1;verticalLabelPosition=bottom;labelBackgroundColor=#ffffff;verticalAlign=top;shadow=0;dashed=0;strokeWidth=2;shape=mxgraph.ios7.misc.add;fillColor=#00dd00;strokeColor=#ffffff;" vertex="1" parent="I7u1v-EpFPIjkbzIhD2q-2">
          <mxGeometry x="160" y="130" width="20" height="20" as="geometry" />
        </mxCell>
        <mxCell id="I7u1v-EpFPIjkbzIhD2q-12" value="" style="html=1;verticalLabelPosition=bottom;labelBackgroundColor=#ffffff;verticalAlign=top;shadow=0;dashed=0;strokeWidth=2;shape=mxgraph.ios7.misc.add;fillColor=#00dd00;strokeColor=#ffffff;" vertex="1" parent="I7u1v-EpFPIjkbzIhD2q-2">
          <mxGeometry x="160" y="210" width="20" height="20" as="geometry" />
        </mxCell>
        <mxCell id="I7u1v-EpFPIjkbzIhD2q-13" value="" style="html=1;verticalLabelPosition=bottom;labelBackgroundColor=#ffffff;verticalAlign=top;shadow=0;dashed=0;strokeWidth=2;shape=mxgraph.ios7.misc.add;fillColor=#00dd00;strokeColor=#ffffff;" vertex="1" parent="I7u1v-EpFPIjkbzIhD2q-2">
          <mxGeometry x="160" y="290" width="20" height="20" as="geometry" />
        </mxCell>
      </root>
    </mxGraphModel>
  </diagram>
</mxfile>
